<svg id="Layer_0_Image" data-name="Layer 0 Image" xmlns="http://www.w3.org/2000/svg" viewBox="0 0 1015.24 398.47"><defs><style>.cls-1{fill:#fe4450;}.cls-2{fill:#fee1e3;}</style></defs><title>sig</title><path class="cls-1" d="M162.84,1075.38c.4,1,.81,1.91,1.2,2.87,4.6,11.56,9.39,23,13.72,34.7a29.44,29.44,0,0,1,1.71,15.55c-1.92,10.67-12.9,15.61-22.15,9.91-4.8-3-7.93-7.43-10.77-12.11C136,1109,128.63,1090.2,122.25,1071c-1.87-5.63-1.83-5.51-7.61-4.07a129.42,129.42,0,0,1-13.1,2.54c-2,.29-2.62,1.06-2.94,3-2.24,13.71-4.21,27.48-7.14,41a67.68,67.68,0,0,1-12.52,27c-3.75,4.9-8.43,8.59-14.7,9.63-8,1.33-15.59-2.63-19.82-10.52-1.7-3.17-2.89-6.62-4.47-10.3-.7,1.09-1.33,2-1.91,3-8.41,14.37-18.17,27.66-31.34,38.1-7.93,6.28-16.75,10.53-27,11.14a20.89,20.89,0,0,1-3.26,0c-3-.29-5.68-.46-8.48,1.56-3.2,2.32-7.68,1.22-10.4-1.73a8.64,8.64,0,0,1-1.75-2.41c-2.37-5.82-6.59-10.34-10.28-15.27-7.82-10.48-11.37-22.7-12.94-35.46a205.6,205.6,0,0,1-1.47-23.92c0-6.84-2.49-13-4.19-19.36-4.07-15.19-8.31-30.33-12.49-45.48-.21-.76-.51-1.49-.78-2.28-.45.13-.77.12-.94.27-9.67,8.65-18.45,18-24.75,29.52a9.81,9.81,0,0,0-1.13,7.06c10.49,51.28,20.69,102.63,36.23,152.72a79.64,79.64,0,0,1,3.3,16.23c.58,6.25-4.89,10.51-11.09,9.37a13.08,13.08,0,0,1-8.95-5.75c-2.91-4.66-6.06-9.46-7.6-14.65-5.82-19.59-11.62-39.22-16.32-59.1q-10.37-43.89-19.15-88.17-12.15-61.21-23.06-122.68c-3-17.24-4.75-34.73-6.69-52.15a73.43,73.43,0,0,1,.35-16,15.47,15.47,0,0,1,3.26-7.33c5.4-6.93,14.83-6,18.83,1.79a19.85,19.85,0,0,1,2.16,8.33c.48,22.72,4.13,45.06,7.92,67.36,3.86,22.66,8.23,45.23,12.39,67.84.17,1,.46,1.88.81,3.32.93-.85,1.59-1.39,2.17-2,7.19-7.66,15-14.53,24.24-19.69,1.59-.9,1.73-1.89,1.37-3.56q-14.18-66.24-28.19-132.51a42.41,42.41,0,0,1-.79-11.63,12.54,12.54,0,0,1,12.23-11.68c6.38-.1,11.14,4.13,12.38,10.78,2,10.79,4.05,21.59,6.27,32.35q9.45,45.78,19.07,91.53c.86,4.09,1.94,8.14,2.81,12.23.4,1.91,1,2.7,3.25,2.19a105.08,105.08,0,0,1,12.12-1.8c1-.1,2.87.66,2.9,1.13a4.75,4.75,0,0,1-1.14,3.5c-3.59,3.34-7.36,6.5-11.14,9.62a3.53,3.53,0,0,0-1.37,4.23c1.35,4.63,2.43,9.32,3.65,14a4.66,4.66,0,0,0,1.45,2.44c.59-1.95,1.17-3.9,1.76-5.85,5.06-16.61,11.56-32.55,22.37-46.38a50.47,50.47,0,0,1,16.61-14.31c14.5-7.43,29.32-3.09,37.55,11,.63,1.06,1.29,2.11,2,3.29,2.44-1.81,4.53-3.56,6.81-5,7.25-4.67,15-6.6,23.29-3.09,2.52,1.08,4.63,3.12,7,4.6.92.58,2.15,1.38,3,1.18a51.44,51.44,0,0,1,26.9,1.62,14.06,14.06,0,0,0,1.71.27c.14-2.75.26-5.34.42-7.93,1.13-18.77,2.13-37.55,3.46-56.31.74-10.51,10.53-16.19,19-11.32a12.56,12.56,0,0,1,6.45,9.63c1.21,9.65,2.07,19.34,3.27,29,1.36,11,2.93,22,4.43,33a14.35,14.35,0,0,0,.68,2.11c2.3-2.64,4.27-5.09,6.42-7.37,8.33-8.82,17.47-16.52,29.42-20,14-4,26.49,2.28,30.16,15.61a36.36,36.36,0,0,1,1,13.18c-.58,5.36-2.35,10.6-3.63,15.88a7.56,7.56,0,0,0-.41,3.15c.72-.45,1.44-.89,2.15-1.35,20-13.18,42.16-17.76,65.78-15.91,20.52,1.6,39.54,8.4,57.95,17.21,1.38.66,2.75,1.35,4.27,2.09.39-.69.75-1.19,1-1.74,3.32-7.57,6.57-15.17,10-22.69.74-1.63.32-2.4-.95-3.38a92.17,92.17,0,0,1-8.59-7.12c-12.33-12.18-12.43-27-.38-39.53,7.4-7.7,16.38-13.23,25.73-18.16,16.73-8.83,34.14-15.83,52.91-18.92,12.74-2.1,25.36-2,37.56,3a13.31,13.31,0,0,1,1.5.65c9.6,5.67,19.52,10.88,28.73,17.14,12.86,8.75,21.83,21.2,29.71,34.4,12.67,21.24,21.9,44.09,30.91,67,.33.83.69,1.64,1.2,2.85,1.09-.91,2-1.58,2.82-2.35,13.24-12.49,24.16-26.86,34-42.12,1.9-3,4-5.68,7.35-7.06,4.57-1.89,9-1.47,12.83,1.67a12.22,12.22,0,0,1,4.24,13.26c-1.74,6.77-4.44,13.32-5.8,20.15-2.11,10.67-3.62,21.48-5,32.27-.44,3.4.26,7,.49,11.29,3.56-1.87,6.36-3.12,9-4.72,11.75-7.28,21-17.22,29.77-27.77,4.58-5.52,9.07-11.14,14-16.36,4.22-4.48,9.61-6.31,15.66-4s8.93,7,8.81,13.15c-.13,6.33-1.17,12.64-1.84,19-.72,6.86-1.5,13.72-2.22,20.59a22.06,22.06,0,0,0,.18,2.94c3.87-3,7.34-5.38,10.52-8.12,12.33-10.67,21.41-23.92,29.72-37.76,3.13-5.23,6.13-10.52,9.3-15.72s7.47-8.74,13.83-7.79c3,.45,5.73,2.29,8.93,3.65.61-2,1.36-4.46,2.13-6.92,7.18-23,16.43-45.08,30.86-64.65,7.46-10.12,16.07-19,27.29-25,15.86-8.57,33.08-6.78,45.62,5.27,8.17,7.84,12.3,17.91,14.4,28.82,3.12,16.2,2.28,32.42-.51,48.55-5.74,33.22-16.77,64.48-35.35,92.85a158.85,158.85,0,0,1-51,49.56,62.52,62.52,0,0,1-20.09,8.24c-1.65.33-2.32,1-2.19,2.7,1.68,22,4.12,44,10.57,65.26,3.18,10.46,8.32,20.33,12.39,30.53a28.85,28.85,0,0,1,2.16,8.65c.37,5.5-2.24,9.67-7.23,12.07a11.91,11.91,0,0,1-14.27-2.72,43.4,43.4,0,0,1-7.1-11.49c-4.52-11.1-8.44-22.44-12.72-33.64-10.13-26.46-18.43-53.44-23-81.46a270,270,0,0,1-3.25-59.5c.07-1.16,0-2.33,0-4.35-1.74,1.9-3,3.33-4.33,4.72-8.41,8.91-17.56,16.89-28.68,22.3-4.55,2.22-9.34,3.66-14.48,3.11-9.87-1-16.68-8.06-18.29-19-.55-3.76-.47-7.61-.66-11.41,0-1,0-1.94,0-3.67-1.27,1.13-2.06,1.77-2.78,2.49-7.82,7.94-16.25,15.17-26.13,20.38a61.32,61.32,0,0,1-15.68,6c-12,2.5-22.4-3.5-26.15-15.13-1.8-5.61-2.1-11.73-2.89-17.64a56.09,56.09,0,0,1,0-7.15,19.19,19.19,0,0,0-1.79,1.22c-4,3.57-7.93,7.22-12,10.71a2.85,2.85,0,0,0-1,3.74c1.57,4,2,8.14.14,12.19-3.9,8.29-14.36,9.8-20.58,2.8-1.82-2-2.92-1.8-5.13-.74-10,4.75-20.15,9.2-30.24,13.75-.81.37-1.66.64-2.49,1,1.07,4,2.3,7.86,3.07,11.75,3.59,18-1.59,33.68-13.61,47.13-14.61,16.35-33.39,25.11-54.74,28.59-18.51,3-36.86,2.13-54.52-4.62-24.89-9.5-40.38-27.74-47.59-53.12-5.63-19.84-5.69-40-3-60.3.55-4.14,1.43-8.24,1.94-12.38a3.31,3.31,0,0,0-1.17-2.75c-19.52-10.13-39.7-18.32-62.09-18.67-16.76-.25-32.54,3.59-46.09,14-11.22,8.61-15.32,20.31-13.84,34.2a4.83,4.83,0,0,0,3.12,4.33q23.87,10.74,47.69,21.56c10.19,4.6,20.48,9,30.52,13.88a42.64,42.64,0,0,1,10.93,7.52c8.82,8.53,5.65,21.87-6.18,25.2a43,43,0,0,1-15.63,1c-21.27-2.21-41.6-7.82-60.21-18.68-13.21-7.7-23.51-18.22-29.76-32.36-1.41-3.2-4.5-4-7-5.61ZM337.32,1043c-.39.69-.6.91-.63,1.15-2.65,17.69-3,35.32,1.8,52.72,4.59,16.72,14.34,29.24,30.66,36,13.3,5.49,27.22,6.13,41.27,4.25,14.27-1.91,27.16-7.18,38.07-16.83,12.37-10.94,15.25-24.29,8.45-39.09a3.28,3.28,0,0,0-3.5-2.27,64.9,64.9,0,0,1-7.88-.41c-28.81-3-48.61-26.12-46.48-57.11.17-2.44-.5-3.92-2.53-5.14q-20.18-12.18-40.29-24.46c-1.61-1-2.58-.8-3.33,1q-4.44,10.83-9,21.61c-.79,1.85-.32,3,1.43,4,5.14,3.07,10.19,6.32,15.28,9.5,18.68,11.68,35,26.17,50.58,41.68,4.34,4.32,9.55,7.76,14.3,11.67a10,10,0,0,1,1.56,2.23,8.65,8.65,0,0,1-2.34.87c-7.37.45-14.17-1.84-20.85-4.51-19.16-7.64-37-17.81-54.22-29C345.63,1048.18,341.56,1045.65,337.32,1043Zm398.8,50.86c2-.85,3.21-1.32,4.4-1.92,17.41-8.87,31.61-21.53,43.31-37.06,16.4-21.76,26.61-46.39,33.3-72.61,4.38-17.15,7.29-34.5,5.4-52.3-.75-7.11-2.34-14-6.84-19.84-3.24-4.2-7.52-5.81-12.53-4.22a34,34,0,0,0-9,4.33c-9.31,6.48-15.65,15.62-21.43,25.12-11.89,19.52-19.13,40.92-24.87,62.88a361.09,361.09,0,0,0-10.77,69.63C736.56,1076.26,736.45,1084.7,736.12,1093.83ZM-10.1,1151.57c-9.59-6.91-12.54-16.64-12.87-27.2-.27-8.86.41-17.76.84-26.64.07-1.64,0-2.61-1.66-3.43-4.71-2.26-7.52-5.94-7.45-11.37s3.17-8.76,7.88-10.71c4.42-1.83,6.84-5,8-9.61A243,243,0,0,1-.75,1019c4.14-9.06,1.23-17.17-2.23-25.35-.87-2.07-2.71-2.57-4.48-1.18a51.09,51.09,0,0,0-7.68,6.83c-6.59,7.8-10.84,17-14.42,26.44-6.82,18-10.37,36.84-12.95,55.89a64.29,64.29,0,0,0,2.62,28.15c4.3,14,7.84,28.17,11.48,42.34.73,2.85,2.22,4,4.82,4.19C-18.56,1156.74-14.45,1154.57-10.1,1151.57ZM471.45,988.39c-.47.74-.77,1.18-1,1.63-3,5.22-7.1,5.46-10.61.56-1.37-1.92-2.39-4.1-3.85-5.93-.63-.8-2.17-1.66-3-1.41-3.26,1-6.67,2-9.52,3.77-7.17,4.48-11.62,11.31-15.13,18.85-.83,1.77-.37,2.7,1,3.87A212.25,212.25,0,0,1,467,1049.28c1.29,1.79,2.54,2.08,4.58,1.47A162.42,162.42,0,0,0,504.91,1036c1.86-1.06,1.9-2,.84-3.64-6.56-9.91-12.87-20-19.71-29.7A56.23,56.23,0,0,0,471.45,988.39ZM449.86,958c-.35-2.09-.6-4-1-5.8-1.58-7.79-3.84-15.36-8.26-22.06a8.73,8.73,0,0,0-4.38-3.63,29,29,0,0,0-8.64-.51c-8.36.5-15.89,3.61-23,7.79-10.85,6.37-20,14.74-28.24,24.17-3.07,3.52-5.91,7.24-8.89,10.9l39.38,23.35C416.24,974.87,429,961.71,449.86,958ZM34.29,1008.35c-3.48,4.41-7.41,8.5-7.91,14.19-1.61,18.66-7.84,35.72-17.49,51.64a17,17,0,0,0-2.28,4.91c-3,13.58-5.28,27.28-4.83,41.27.06,2.13.41,4.25.64,6.49a4.63,4.63,0,0,0,1.16-.34c.69-.58,1.38-1.17,2-1.82,9-9,15-20,20.43-31.33,6.93-14.62,12-29.81,14.11-45.9a10.74,10.74,0,0,0-.8-6c-4.78-9.11-7-18.63-5.64-28.91C33.89,1011.16,34.09,1009.76,34.29,1008.35Zm48.94,35.43a6.35,6.35,0,0,0,.53-1.36c1.28-10,2.57-20,3.74-30a2.71,2.71,0,0,0-1.08-2.2,30.35,30.35,0,0,0-16.6-4.4c-1.41.07-2.1.51-2.12,2.1-.13,8.7-.39,17.4-.51,26.09a4,4,0,0,0,1.06,2.84A34.21,34.21,0,0,0,83.23,1043.78ZM143,1022.91c13.25-9.12,27.54-33.18,26-43.63-.18,0-.37-.11-.52-.06a8,8,0,0,0-1.53.56c-11.39,6.47-20.09,15.44-25,27.69C139.84,1012.57,140.31,1017.74,143,1022.91Zm-79.46,92.58.75.25c1.23-3.29,2.65-6.52,3.66-9.88q5.27-17.44,10.24-35c.21-.73-.14-2.29-.58-2.45-3.73-1.27-7.53-2.3-11.62-3.5C63.7,1081.9,61.82,1098.6,63.51,1115.49ZM345,956.22l22.79-26.48A134.11,134.11,0,0,0,351,938.52a120.3,120.3,0,0,0-11.43,8.77c-1.14.93-2.07,2.3-.54,3.71C341,952.83,343.07,954.55,345,956.22ZM104.34,1025.6l-.69.16c-.7,6-1.39,11.9-2.17,18.54,3.72-1,6.9-1.85,10.09-2.67,1.62-.41,1.9-1.26,1.41-2.81C111.29,1033.58,107.47,1029.83,104.34,1025.6Zm60.5,20.21,1.94-10.31-6.93,6.59Z" transform="translate(166.83 -854.17)"/><path class="cls-2" d="M164.84,1045.81l-5-3.72,6.93-6.59Z" transform="translate(166.83 -854.17)"/><polygon points="326.29 188.14 332 191.88 334.2 180.56 326.29 188.14"/></svg>